<svg width="320" height="320" viewBox="0 0 320 320" fill="none" xmlns="http://www.w3.org/2000/svg">
<rect x="160" y="20" width="20" height="20" fill="#85E9BF"/>
<rect x="160" y="40" width="20" height="20" fill="#8BF887"/>
<rect x="140" y="20" width="20" height="20" fill="#B2F887"/>
<rect x="140" y="40" width="20" height="20" fill="#DAFF98"/>
<rect x="160" y="60" width="20" height="20" fill="#8AF188"/>
<rect x="160" y="80" width="20" height="20" fill="#8AF188"/>
<rect x="160" y="100" width="20" height="20" fill="#7DE088"/>
<rect x="160" y="120" width="20" height="20" fill="#86DE8F"/>
<rect x="160" y="140" width="20" height="20" fill="#7EE188"/>
<rect x="160" y="160" width="20" height="20" fill="#77EB73"/>
<rect x="160" y="200" width="20" height="20" fill="#7EE188"/>
<rect x="160" y="240" width="20" height="20" fill="#60C3B6"/>
<rect x="160" y="180" width="20" height="20" fill="#9CEB8F"/>
<rect x="160" y="220" width="20" height="20" fill="#6ACEA7"/>
<rect x="160" y="260" width="20" height="20" fill="#63C0B1"/>
<rect x="160" y="280" width="20" height="20" fill="#DB946C"/>
<rect x="140" y="60" width="20" height="20" fill="#DAFF98"/>
<rect x="140" y="80" width="20" height="20" fill="#DAFF98"/>
<rect x="120" y="80" width="20" height="20" fill="#DAFF98"/>
<rect x="120" y="100" width="20" height="20" fill="#DAFF98"/>
<rect x="120" y="120" width="20" height="20" fill="#DAFF98"/>
<rect x="120" y="140" width="20" height="20" fill="#DAFF98"/>
<rect x="100" y="140" width="20" height="20" fill="#DAFF98"/>
<rect x="120" y="160" width="20" height="20" fill="#DAFF98"/>
<rect x="120" y="200" width="20" height="20" fill="#C7F7A1"/>
<rect x="100" y="200" width="20" height="20" fill="#DAFF98"/>
<rect x="100" y="240" width="20" height="20" fill="#DAFF98"/>
<rect x="80" y="240" width="20" height="20" fill="#DAFF98"/>
<rect x="80" y="220" width="20" height="20" fill="#DAFF98"/>
<rect x="120" y="240" width="20" height="20" fill="#DAFF98"/>
<rect x="100" y="160" width="20" height="20" fill="#DAFF98"/>
<rect x="120" y="180" width="20" height="20" fill="#DAFF98"/>
<rect x="120" y="220" width="20" height="20" fill="#80E383"/>
<rect x="120" y="260" width="20" height="20" fill="#60C3B6"/>
<rect x="100" y="180" width="20" height="20" fill="#DAFF98"/>
<rect x="100" y="220" width="20" height="20" fill="#A9ED91"/>
<rect x="100" y="260" width="20" height="20" fill="#60C3B6"/>
<rect x="140" y="100" width="20" height="20" fill="#C7F7A1"/>
<rect x="140" y="120" width="20" height="20" fill="#9CEB8F"/>
<rect x="140" y="140" width="20" height="20" fill="#9CEB8F"/>
<rect x="140" y="160" width="20" height="20" fill="#9CEB8F"/>
<rect x="140" y="200" width="20" height="20" fill="#C7F7A1"/>
<rect x="140" y="240" width="20" height="20" fill="#61C4B4"/>
<rect x="120" y="240" width="20" height="20" fill="#70CD9B"/>
<rect x="140" y="180" width="20" height="20" fill="#D5FE95"/>
<rect x="140" y="220" width="20" height="20" fill="#7EE187"/>
<rect x="140" y="260" width="20" height="20" fill="#60C3B6"/>
<rect x="180" y="40" width="20" height="20" fill="#62D1B6"/>
<rect x="180" y="60" width="20" height="20" fill="#62D1B6"/>
<rect x="180" y="80" width="20" height="20" fill="#68DAA2"/>
<rect x="180" y="100" width="20" height="20" fill="#61CEB7"/>
<rect x="180" y="120" width="20" height="20" fill="#61CEB7"/>
<rect x="180" y="140" width="20" height="20" fill="#61CEB7"/>
<rect x="180" y="160" width="20" height="20" fill="#73D69A"/>
<rect x="180" y="200" width="20" height="20" fill="#7EE188"/>
<rect x="180" y="240" width="20" height="20" fill="#53B5B7"/>
<rect x="180" y="180" width="20" height="20" fill="#7EE188"/>
<rect x="180" y="220" width="20" height="20" fill="#60C3B6"/>
<rect x="180" y="260" width="20" height="20" fill="#60C3B6"/>
<rect x="200" y="120" width="20" height="20" fill="#55BEB9"/>
<rect x="200" y="140" width="20" height="20" fill="#5FCCB7"/>
<rect x="200" y="160" width="20" height="20" fill="#5FCCB7"/>
<rect x="200" y="200" width="20" height="20" fill="#60C3B5"/>
<rect x="200" y="240" width="20" height="20" fill="#53B5B7"/>
<rect x="200" y="180" width="20" height="20" fill="#5FCCB7"/>
<rect x="200" y="220" width="20" height="20" fill="#50B2B7"/>
<rect x="200" y="260" width="20" height="20" fill="#5FCCB7"/>
<rect x="220" y="160" width="20" height="20" fill="#64CDC8"/>
<rect x="220" y="200" width="20" height="20" fill="#53B5B7"/>
<rect x="220" y="240" width="20" height="20" fill="#57C0B9"/>
<rect x="220" y="180" width="20" height="20" fill="#57C0B9"/>
<rect x="220" y="220" width="20" height="20" fill="#53B5B7"/>
<rect x="220" y="260" width="20" height="20" fill="#93E1D7"/>
<rect x="160" y="160" width="20" height="20" fill="#FFFEF8"/>
<rect x="160" y="200" width="20" height="20" fill="#FFFEF8"/>
<rect x="160" y="240" width="20" height="20" fill="#FFFEF8"/>
<rect x="140" y="160" width="20" height="20" fill="#FFFEF8"/>
<rect x="180" y="160" width="20" height="20" fill="#FFFEF8"/>
<rect x="180" y="180" width="20" height="20" fill="#FFFEF8"/>
</svg>
