<svg width="320" height="320" viewBox="0 0 320 320" xmlns="http://www.w3.org/2000/svg" shape-rendering="crispEdges">
    <rect width="100%" height="100%" fill="none"/>
    <rect width="320" height="10" x="0" y="0" fill="#b0bec9"/>
    <rect width="320" height="10" x="0" y="10" fill="#b0bec9"/>
    <rect width="150" height="10" x="0" y="20" fill="#b0bec9"/>
    <rect width="20" height="10" x="150" y="20" fill="#234f38"/>
    <rect width="150" height="10" x="170" y="20" fill="#b0bec9"/>
    <rect width="140" height="10" x="0" y="30" fill="#b0bec9"/>
    <rect width="10" height="10" x="140" y="30" fill="#234f38"/>
    <rect width="20" height="10" x="150" y="30" fill="#36f800"/>
    <rect width="10" height="10" x="170" y="30" fill="#234f38"/>
    <rect width="140" height="10" x="180" y="30" fill="#b0bec9"/>
    <rect width="130" height="10" x="0" y="40" fill="#b0bec9"/>
    <rect width="10" height="10" x="130" y="40" fill="#234f38"/>
    <rect width="10" height="10" x="140" y="40" fill="#006b54"/>
    <rect width="20" height="10" x="150" y="40" fill="#12b81b"/>
    <rect width="10" height="10" x="170" y="40" fill="#36f800"/>
    <rect width="10" height="10" x="180" y="40" fill="#234f38"/>
    <rect width="130" height="10" x="190" y="40" fill="#b0bec9"/>
    <rect width="130" height="10" x="0" y="50" fill="#b0bec9"/>
    <rect width="10" height="10" x="130" y="50" fill="#234f38"/>
    <rect width="10" height="10" x="140" y="50" fill="#006b54"/>
    <rect width="20" height="10" x="150" y="50" fill="#12b81b"/>
    <rect width="10" height="10" x="170" y="50" fill="#36f800"/>
    <rect width="10" height="10" x="180" y="50" fill="#234f38"/>
    <rect width="130" height="10" x="190" y="50" fill="#b0bec9"/>
    <rect width="120" height="10" x="0" y="60" fill="#b0bec9"/>
    <rect width="10" height="10" x="120" y="60" fill="#234f38"/>
    <rect width="10" height="10" x="130" y="60" fill="#006b54"/>
    <rect width="10" height="10" x="140" y="60" fill="#0a7c35"/>
    <rect width="30" height="10" x="150" y="60" fill="#12b81b"/>
    <rect width="10" height="10" x="180" y="60" fill="#36f800"/>
    <rect width="10" height="10" x="190" y="60" fill="#234f38"/>
    <rect width="120" height="10" x="200" y="60" fill="#b0bec9"/>
    <rect width="120" height="10" x="0" y="70" fill="#b0bec9"/>
    <rect width="10" height="10" x="120" y="70" fill="#234f38"/>
    <rect width="10" height="10" x="130" y="70" fill="#0a7c35"/>
    <rect width="40" height="10" x="140" y="70" fill="#12b81b"/>
    <rect width="10" height="10" x="180" y="70" fill="#36f800"/>
    <rect width="10" height="10" x="190" y="70" fill="#234f38"/>
    <rect width="120" height="10" x="200" y="70" fill="#b0bec9"/>
    <rect width="110" height="10" x="0" y="80" fill="#b0bec9"/>
    <rect width="10" height="10" x="110" y="80" fill="#234f38"/>
    <rect width="10" height="10" x="120" y="80" fill="#006b54"/>
    <rect width="60" height="10" x="130" y="80" fill="#12b81b"/>
    <rect width="10" height="10" x="190" y="80" fill="#36f800"/>
    <rect width="10" height="10" x="200" y="80" fill="#234f38"/>
    <rect width="110" height="10" x="210" y="80" fill="#b0bec9"/>
    <rect width="100" height="10" x="0" y="90" fill="#b0bec9"/>
    <rect width="10" height="10" x="100" y="90" fill="#234f38"/>
    <rect width="10" height="10" x="110" y="90" fill="#006b54"/>
    <rect width="20" height="10" x="120" y="90" fill="#0a7c35"/>
    <rect width="50" height="10" x="140" y="90" fill="#12b81b"/>
    <rect width="20" height="10" x="190" y="90" fill="#36f800"/>
    <rect width="10" height="10" x="210" y="90" fill="#234f38"/>
    <rect width="100" height="10" x="220" y="90" fill="#b0bec9"/>
    <rect width="90" height="10" x="0" y="100" fill="#b0bec9"/>
    <rect width="10" height="10" x="90" y="100" fill="#234f38"/>
    <rect width="10" height="10" x="100" y="100" fill="#006b54"/>
    <rect width="20" height="10" x="110" y="100" fill="#0a7c35"/>
    <rect width="50" height="10" x="130" y="100" fill="#12b81b"/>
    <rect width="40" height="10" x="180" y="100" fill="#36f800"/>
    <rect width="10" height="10" x="220" y="100" fill="#234f38"/>
    <rect width="90" height="10" x="230" y="100" fill="#b0bec9"/>
    <rect width="100" height="10" x="0" y="110" fill="#b0bec9"/>
    <rect width="20" height="10" x="100" y="110" fill="#234f38"/>
    <rect width="80" height="10" x="120" y="110" fill="#0a7c35"/>
    <rect width="20" height="10" x="200" y="110" fill="#234f38"/>
    <rect width="100" height="10" x="220" y="110" fill="#b0bec9"/>
    <rect width="90" height="10" x="0" y="120" fill="#b0bec9"/>
    <rect width="10" height="10" x="90" y="120" fill="#234f38"/>
    <rect width="10" height="10" x="100" y="120" fill="#006b54"/>
    <rect width="20" height="10" x="110" y="120" fill="#0a7c35"/>
    <rect width="50" height="10" x="130" y="120" fill="#12b81b"/>
    <rect width="10" height="10" x="180" y="120" fill="#32f600"/>
    <rect width="10" height="10" x="190" y="120" fill="#33f600"/>
    <rect width="20" height="10" x="200" y="120" fill="#37f501"/>
    <rect width="10" height="10" x="220" y="120" fill="#234f38"/>
    <rect width="90" height="10" x="230" y="120" fill="#b0bec9"/>
    <rect width="80" height="10" x="0" y="130" fill="#b0bec9"/>
    <rect width="10" height="10" x="80" y="130" fill="#234f38"/>
    <rect width="20" height="10" x="90" y="130" fill="#006b54"/>
    <rect width="10" height="10" x="110" y="130" fill="#0a7c35"/>
    <rect width="20" height="10" x="120" y="130" fill="#12b81b"/>
    <rect width="40" height="10" x="140" y="130" fill="#ffffff"/>
    <rect width="30" height="10" x="180" y="130" fill="#12b81b"/>
    <rect width="20" height="10" x="210" y="130" fill="#36f800"/>
    <rect width="10" height="10" x="230" y="130" fill="#234f38"/>
    <rect width="80" height="10" x="240" y="130" fill="#b0bec9"/>
    <rect width="90" height="10" x="0" y="140" fill="#b0bec9"/>
    <rect width="10" height="10" x="90" y="140" fill="#234f38"/>
    <rect width="10" height="10" x="100" y="140" fill="#006b54"/>
    <rect width="20" height="10" x="110" y="140" fill="#0a7c35"/>
    <rect width="60" height="10" x="130" y="140" fill="#ffffff"/>
    <rect width="30" height="10" x="190" y="140" fill="#36f800"/>
    <rect width="10" height="10" x="220" y="140" fill="#234f38"/>
    <rect width="90" height="10" x="230" y="140" fill="#b0bec9"/>
    <rect width="80" height="10" x="0" y="150" fill="#b0bec9"/>
    <rect width="10" height="10" x="80" y="150" fill="#234f38"/>
    <rect width="20" height="10" x="90" y="150" fill="#006b54"/>
    <rect width="20" height="10" x="110" y="150" fill="#0a7c35"/>
    <rect width="20" height="10" x="130" y="150" fill="#ffffff"/>
    <rect width="20" height="10" x="150" y="150" fill="#12b81b"/>
    <rect width="20" height="10" x="170" y="150" fill="#ffffff"/>
    <rect width="30" height="10" x="190" y="150" fill="#0a7c35"/>
    <rect width="10" height="10" x="220" y="150" fill="#36f800"/>
    <rect width="10" height="10" x="230" y="150" fill="#234f38"/>
    <rect width="80" height="10" x="240" y="150" fill="#b0bec9"/>
    <rect width="70" height="10" x="0" y="160" fill="#b0bec9"/>
    <rect width="10" height="10" x="70" y="160" fill="#234f38"/>
    <rect width="20" height="10" x="80" y="160" fill="#006b54"/>
    <rect width="30" height="10" x="100" y="160" fill="#0a7c35"/>
    <rect width="20" height="10" x="130" y="160" fill="#ffffff"/>
    <rect width="20" height="10" x="150" y="160" fill="#12b81b"/>
    <rect width="20" height="10" x="170" y="160" fill="#ffffff"/>
    <rect width="10" height="10" x="190" y="160" fill="#12b81b"/>
    <rect width="40" height="10" x="200" y="160" fill="#36f800"/>
    <rect width="10" height="10" x="240" y="160" fill="#234f38"/>
    <rect width="70" height="10" x="250" y="160" fill="#b0bec9"/>
    <rect width="60" height="10" x="0" y="170" fill="#b0bec9"/>
    <rect width="10" height="10" x="60" y="170" fill="#234f38"/>
    <rect width="40" height="10" x="70" y="170" fill="#006b54"/>
    <rect width="10" height="10" x="110" y="170" fill="#0a7c35"/>
    <rect width="50" height="10" x="120" y="170" fill="#12b81b"/>
    <rect width="20" height="10" x="170" y="170" fill="#ffffff"/>
    <rect width="50" height="10" x="190" y="170" fill="#12b81b"/>
    <rect width="10" height="10" x="240" y="170" fill="#36f800"/>
    <rect width="10" height="10" x="250" y="170" fill="#234f38"/>
    <rect width="60" height="10" x="260" y="170" fill="#b0bec9"/>
    <rect width="70" height="10" x="0" y="180" fill="#b0bec9"/>
    <rect width="30" height="10" x="70" y="180" fill="#234f38"/>
    <rect width="10" height="10" x="100" y="180" fill="#006b54"/>
    <rect width="50" height="10" x="110" y="180" fill="#0a7c35"/>
    <rect width="30" height="10" x="160" y="180" fill="#ffffff"/>
    <rect width="10" height="10" x="190" y="180" fill="#12b81b"/>
    <rect width="20" height="10" x="200" y="180" fill="#0a7c35"/>
    <rect width="30" height="10" x="220" y="180" fill="#234f38"/>
    <rect width="70" height="10" x="250" y="180" fill="#b0bec9"/>
    <rect width="80" height="10" x="0" y="190" fill="#b0bec9"/>
    <rect width="10" height="10" x="80" y="190" fill="#234f38"/>
    <rect width="10" height="10" x="90" y="190" fill="#006b54"/>
    <rect width="20" height="10" x="100" y="190" fill="#0a7c35"/>
    <rect width="30" height="10" x="120" y="190" fill="#12b81b"/>
    <rect width="30" height="10" x="150" y="190" fill="#ffffff"/>
    <rect width="20" height="10" x="180" y="190" fill="#0a7c35"/>
    <rect width="30" height="10" x="200" y="190" fill="#36f800"/>
    <rect width="10" height="10" x="230" y="190" fill="#234f38"/>
    <rect width="80" height="10" x="240" y="190" fill="#b0bec9"/>
    <rect width="70" height="10" x="0" y="200" fill="#b0bec9"/>
    <rect width="10" height="10" x="70" y="200" fill="#234f38"/>
    <rect width="20" height="10" x="80" y="200" fill="#006b54"/>
    <rect width="30" height="10" x="100" y="200" fill="#0a7c35"/>
    <rect width="20" height="10" x="130" y="200" fill="#12b81b"/>
    <rect width="20" height="10" x="150" y="200" fill="#ffffff"/>
    <rect width="60" height="10" x="170" y="200" fill="#12b81b"/>
    <rect width="10" height="10" x="230" y="200" fill="#36f800"/>
    <rect width="10" height="10" x="240" y="200" fill="#234f38"/>
    <rect width="70" height="10" x="250" y="200" fill="#b0bec9"/>
    <rect width="60" height="10" x="0" y="210" fill="#b0bec9"/>
    <rect width="10" height="10" x="60" y="210" fill="#234f38"/>
    <rect width="20" height="10" x="70" y="210" fill="#006b54"/>
    <rect width="30" height="10" x="90" y="210" fill="#0a7c35"/>
    <rect width="90" height="10" x="120" y="210" fill="#12b81b"/>
    <rect width="40" height="10" x="210" y="210" fill="#36f800"/>
    <rect width="10" height="10" x="250" y="210" fill="#234f38"/>
    <rect width="60" height="10" x="260" y="210" fill="#b0bec9"/>
    <rect width="70" height="10" x="0" y="220" fill="#b0bec9"/>
    <rect width="10" height="10" x="70" y="220" fill="#234f38"/>
    <rect width="10" height="10" x="80" y="220" fill="#006b54"/>
    <rect width="60" height="10" x="90" y="220" fill="#0a7c35"/>
    <rect width="20" height="10" x="150" y="220" fill="#ffffff"/>
    <rect width="60" height="10" x="170" y="220" fill="#0a7c35"/>
    <rect width="20" height="10" x="230" y="220" fill="#234f38"/>
    <rect width="70" height="10" x="250" y="220" fill="#b0bec9"/>
    <rect width="50" height="10" x="0" y="230" fill="#b0bec9"/>
    <rect width="20" height="10" x="50" y="230" fill="#234f38"/>
    <rect width="20" height="10" x="70" y="230" fill="#006b54"/>
    <rect width="20" height="10" x="90" y="230" fill="#0a7c35"/>
    <rect width="40" height="10" x="110" y="230" fill="#12b81b"/>
    <rect width="20" height="10" x="150" y="230" fill="#ffffff"/>
    <rect width="30" height="10" x="170" y="230" fill="#12b81b"/>
    <rect width="50" height="10" x="200" y="230" fill="#36f800"/>
    <rect width="20" height="10" x="250" y="230" fill="#234f38"/>
    <rect width="50" height="10" x="270" y="230" fill="#b0bec9"/>
    <rect width="40" height="10" x="0" y="240" fill="#b0bec9"/>
    <rect width="10" height="10" x="40" y="240" fill="#234f38"/>
    <rect width="30" height="10" x="50" y="240" fill="#006b54"/>
    <rect width="40" height="10" x="80" y="240" fill="#0a7c35"/>
    <rect width="110" height="10" x="120" y="240" fill="#12b81b"/>
    <rect width="40" height="10" x="230" y="240" fill="#36f800"/>
    <rect width="10" height="10" x="270" y="240" fill="#234f38"/>
    <rect width="40" height="10" x="280" y="240" fill="#b0bec9"/>
    <rect width="50" height="10" x="0" y="250" fill="#b0bec9"/>
    <rect width="10" height="10" x="50" y="250" fill="#234f38"/>
    <rect width="30" height="10" x="60" y="250" fill="#006b54"/>
    <rect width="60" height="10" x="90" y="250" fill="#0a7c35"/>
    <rect width="70" height="10" x="150" y="250" fill="#12b81b"/>
    <rect width="40" height="10" x="220" y="250" fill="#36f800"/>
    <rect width="10" height="10" x="260" y="250" fill="#234f38"/>
    <rect width="50" height="10" x="270" y="250" fill="#b0bec9"/>
    <rect width="60" height="10" x="0" y="260" fill="#b0bec9"/>
    <rect width="30" height="10" x="60" y="260" fill="#234f38"/>
    <rect width="60" height="10" x="90" y="260" fill="#006b54"/>
    <rect width="80" height="10" x="150" y="260" fill="#0a7c35"/>
    <rect width="30" height="10" x="230" y="260" fill="#234f38"/>
    <rect width="60" height="10" x="260" y="260" fill="#b0bec9"/>
    <rect width="90" height="10" x="0" y="270" fill="#b0bec9"/>
    <rect width="140" height="10" x="90" y="270" fill="#234f38"/>
    <rect width="90" height="10" x="230" y="270" fill="#b0bec9"/>
    <rect width="120" height="10" x="0" y="280" fill="#b0bec9"/>
    <rect width="10" height="10" x="120" y="280" fill="#71431d"/>
    <rect width="60" height="10" x="130" y="280" fill="#956c38"/>
    <rect width="10" height="10" x="190" y="280" fill="#71431d"/>
    <rect width="120" height="10" x="200" y="280" fill="#b0bec9"/>
    <rect width="100" height="10" x="0" y="290" fill="#b0bec9"/>
    <rect width="20" height="10" x="100" y="290" fill="#868ea1"/>
    <rect width="10" height="10" x="120" y="290" fill="#71431d"/>
    <rect width="10" height="10" x="130" y="290" fill="#956c38"/>
    <rect width="30" height="10" x="140" y="290" fill="#bb8d37"/>
    <rect width="10" height="10" x="170" y="290" fill="#bb8b39"/>
    <rect width="10" height="10" x="180" y="290" fill="#ba8c37"/>
    <rect width="10" height="10" x="190" y="290" fill="#71431d"/>
    <rect width="20" height="10" x="200" y="290" fill="#868ea1"/>
    <rect width="100" height="10" x="220" y="290" fill="#b0bec9"/>
    <rect width="90" height="10" x="0" y="300" fill="#b0bec9"/>
    <rect width="30" height="10" x="90" y="300" fill="#868ea1"/>
    <rect width="10" height="10" x="120" y="300" fill="#71431d"/>
    <rect width="10" height="10" x="130" y="300" fill="#956c38"/>
    <rect width="50" height="10" x="140" y="300" fill="#ba8c37"/>
    <rect width="10" height="10" x="190" y="300" fill="#71431d"/>
    <rect width="30" height="10" x="200" y="300" fill="#868ea1"/>
    <rect width="90" height="10" x="230" y="300" fill="#b0bec9"/>
    <rect width="100" height="10" x="0" y="310" fill="#b0bec9"/>
    <rect width="120" height="10" x="100" y="310" fill="#868ea1"/>
    <rect width="100" height="10" x="220" y="310" fill="#b0bec9"/>
  </svg>